<mxfile host="app.diagrams.net" modified="2023-11-12T12:47:47.051Z" agent="Mozilla/5.0 (Macintosh; Intel Mac OS X 10_15_7) AppleWebKit/537.36 (KHTML, like Gecko) Chrome/116.0.0.0 Safari/537.36" version="22.1.0" etag="esX17b1mMyU5CxihWCi_" type="github">
  <diagram name="第 1 页" id="rZVX--dVDB7q_OyXzLmH">
    <mxGraphModel>
      <root>
        <mxCell id="0" />
        <mxCell id="1" parent="0" />
      </root>
    </mxGraphModel>
  </diagram>
</mxfile>
